<svg width="21" height="12" viewBox="0 0 21 12" fill="none" xmlns="http://www.w3.org/2000/svg">
  <g id="hided">
    <path id="Vector" d="M0.163215 5.51773C0.662584 4.9962 1.18537 4.52154 1.72712 4.09491C4.17697 2.16623 7.08585 1.13589 10.0848 1.08415C11.2061 1.06479 12.3381 1.18246 13.4613 1.4413L12.4523 2.31406C11.6694 2.17865 10.8855 2.11834 10.1086 2.13179C7.40646 2.1785 4.77392 3.11586 2.54419 4.87144C2.14702 5.18409 1.76455 5.52039 1.39882 5.87961C2.09455 6.57749 2.86856 7.18062 3.69776 7.68707C4.20841 7.99913 4.73974 8.27438 5.28645 8.51282L4.38718 9.29068C3.91173 9.06835 3.44825 8.82 2.99947 8.54579C1.94963 7.90452 0.980629 7.12238 0.131769 6.20275C-0.0577589 5.99624 -0.0389599 5.70458 0.163215 5.51773ZM16.4115 0L17.4186 0.871135L4.80554 11.7815L3.79825 10.9101L16.4115 0ZM16.7003 2.60306C17.4562 2.97661 18.1986 3.42024 18.921 3.93556C19.5836 4.40801 20.2258 4.93678 20.8419 5.52246C21.0407 5.71124 21.0504 5.99122 20.8805 6.18871C20.1746 7.05113 19.3636 7.78759 18.4762 8.40062C16.2558 9.93372 13.5589 10.6885 10.8269 10.6992C9.78197 10.7032 9.15238 10.2348 8.12236 10.0227L8.7282 9.49897C9.42291 9.60318 10.1239 9.65403 10.8221 9.65137C13.2866 9.64191 15.7189 8.96132 17.7206 7.57886C18.4039 7.10715 19.0376 6.5531 19.6053 5.91523C19.129 5.4858 18.6436 5.09584 18.1513 4.74475C17.3899 4.20179 16.606 3.7456 15.8088 3.37397L16.7003 2.60306ZM10.5001 2.682C10.9554 2.682 11.3915 2.7531 11.7948 2.88289L10.8226 3.72387C10.7168 3.71219 10.6093 3.70628 10.5003 3.70628C9.80282 3.70628 9.17152 3.95078 8.71453 4.34607C8.25754 4.74135 7.97488 5.28757 7.97488 5.89084C7.97488 5.9853 7.98171 6.07829 7.99521 6.16949L7.02296 7.01077C6.87274 6.66205 6.79071 6.28465 6.79071 5.89084C6.79071 5.00463 7.206 4.20268 7.87729 3.62187C8.54842 3.04106 9.47572 2.682 10.5001 2.682ZM14.0331 4.91017C14.1476 5.21912 14.2095 5.54877 14.2095 5.89084C14.2095 6.77691 13.7942 7.57901 13.1231 8.15967C12.4516 8.74033 11.5243 9.09939 10.5001 9.09939C10.1048 9.09939 9.72386 9.04603 9.36651 8.94669L10.3772 8.07245C10.4179 8.07422 10.4589 8.07511 10.5001 8.07511C11.1975 8.07511 11.8288 7.8309 12.2858 7.43562C12.7428 7.04033 13.0255 6.49412 13.0255 5.89099C13.0255 5.85537 13.0245 5.82003 13.0224 5.78456L14.0331 4.91017Z" fill="#A4A4A6" />
  </g>
</svg>